<svg xmlns="http://www.w3.org/2000/svg" width="662" height="356" viewBox="0 0 662 356">
  <g fill="none" fill-rule="evenodd" transform="translate(0 1)">
    <rect width="474" height="262" x="61" y="18" fill="#FFF" rx="2.94"/>
    <path fill="#FFC036" stroke="#6C7378" stroke-width="1.275" d="M43,299 L43,12.325182 C43,5.51817193 48.6908052,0 55.7107692,0 L540.289231,0 C547.309195,0 553,5.51817193 553,12.325182 L553,299"/>
    <path fill="#FFF" fill-rule="nonzero" stroke="#6C7378" stroke-width=".85" d="M58,24.71 C58,23.2195 59.2214286,22 60.7142857,22 L530.285714,22 C531.778571,22 533,23.2195 533,24.71 L533,293 L58,293 L58,24.71 Z"/>
    <rect width="391" height="229" x="145" y="64" fill="#F5F7FA"/>
    <path fill="#FFC036" stroke="#6C7378" stroke-width="1.275" d="M12.269851,299.6375 C8.9313557,299.6375 5.75311226,301.069025 3.54073631,303.569213 C-0.725249366,308.39017 -0.275356287,315.756593 4.54560063,320.022578 L25.2343886,338.329747 C27.442642,340.283794 30.289455,341.3625 33.2381299,341.3625 L564.762143,341.3625 C567.710818,341.3625 570.557631,340.283794 572.765885,338.329747 L593.454673,320.022578 C595.954861,317.810202 597.386386,314.631959 597.386386,311.293464 C597.386386,304.856053 592.167833,299.6375 585.730422,299.6375 L12.269851,299.6375 Z"/>
    <rect width="86.15" height="256.15" x="58.42" y="37.42" fill="#FFF" stroke="#CBD2D6" stroke-width=".85"/>
    <rect width="125.15" height="8.15" x="234.43" y="314.43" stroke="#6C7378" stroke-width=".85" rx="4.075"/>
    <rect width="205" height="224" x="239" y="69" fill="#FFF"/>
    <path fill="#222" fill-rule="nonzero" d="M57,37 L57,19.6666667 C57,18.2 58.2291429,17 59.7314286,17 L532.268571,17 C533.770857,17 535,18.2 535,19.6666667 L535,37 L57,37 Z"/>
    <g fill="#FFF" fill-rule="nonzero" transform="translate(65 23)">
      <ellipse cx="3.43" cy="3.911" rx="3.267" ry="3.556"/>
      <ellipse cx="14.047" cy="3.911" rx="3.267" ry="3.556"/>
      <ellipse cx="24.663" cy="3.911" rx="3.267" ry="3.556"/>
    </g>
    <rect width="126" height="4" x="252" y="214" fill="#D8D8D8" fill-rule="nonzero"/>
    <rect width="39" height="4" x="389" y="237" fill="#6C7378" fill-rule="nonzero"/>
    <rect width="39" height="4" x="389" y="214" fill="#D8D8D8" fill-rule="nonzero"/>
    <rect width="82" height="4" x="252" y="205" fill="#D8D8D8" fill-rule="nonzero"/>
    <rect width="106" height="4" x="252" y="237" fill="#6C7378" fill-rule="nonzero"/>
    <text fill="#0070BA" font-family="PayPalSansBig-Regular, PayPal Sans Big, sans-serif" font-size="12.83">
      <tspan x="252" y="188">Transaction details</tspan>
    </text>
    <text fill="#6C7378" font-family="PayPalSansBig-Light, PayPal Sans Big, sans-serif" font-size="12.83" font-weight="300">
      <tspan x="266.45" y="130">Dollar Payout has sent you</tspan> <tspan x="301.05" y="149.58" font-size="15.3">$20.00 EURO</tspan>
    </text>
    <path stroke="#6C7378" stroke-linecap="square" stroke-width=".606" d="M252.317351 162.452083L426.612832 162.452083M252.315396 226.452083L428.615217 226.452083M252.316365 249.452083L427.614035 249.452083"/>
    <g transform="translate(329.499 84.57)">
      <path fill="#009CDE" d="M19.4265974,6.67511576 C19.7369835,4.69646885 19.4245247,3.34999405 18.3542366,2.13047186 C17.1759092,0.787883366 15.0472509,0.212710373 12.3237291,0.212710373 L4.41769131,0.212710373 C3.86117257,0.212710373 3.38730257,0.61766325 3.30050845,1.16744572 L0.00854986882,22.0428572 C-0.0564809516,22.4548055 0.26193689,22.8271134 0.678807767,22.8271134 L5.55948743,22.8271134 L5.22267441,24.9632852 C5.16593437,25.3236751 5.44419374,25.6496064 5.80898814,25.6496064 L9.92277048,25.6496064 C10.4098539,25.6496064 10.824393,25.2951755 10.9003055,24.8143102 L10.940723,24.605227 L11.7156521,19.6908661 L11.7656558,19.419343 C11.8415683,18.9382185 12.2561074,18.5840467 12.7429318,18.5840467 L13.3582632,18.5840467 C17.3437975,18.5840467 20.4644996,16.9647533 21.3762266,12.2820161 C21.7573434,10.3253916 21.5604374,8.69210754 20.5528483,7.54383425 C20.247903,7.19665776 19.8688588,6.90933035 19.4265974,6.67511576"/>
      <path fill="#012169" d="M19.4265974,6.67511576 C19.7369835,4.69646885 19.4245247,3.34999405 18.3542366,2.13047186 C17.1759092,0.787883366 15.0472509,0.212710373 12.3237291,0.212710373 L4.41769131,0.212710373 C3.86117257,0.212710373 3.38730257,0.61766325 3.30050845,1.16744572 L0.00854986882,22.0428572 C-0.0564809516,22.4548055 0.26193689,22.8271134 0.678807767,22.8271134 L5.55948743,22.8271134 L6.7854868,15.0529509 L6.74740102,15.2967517 C6.83419514,14.7469692 7.30417884,14.3417572 7.86069757,14.3417572 L10.180562,14.3417572 C14.7363466,14.3417572 18.3034555,12.4908402 19.3457623,7.13810411 C19.3765936,6.979802 19.4030205,6.82616345 19.4265974,6.67511576"/>
      <path fill="#003087" d="M8.10242568,6.70154263 C8.15476124,6.37068862 8.36695344,6.09994277 8.65272633,5.96288578 C8.78278797,5.90070492 8.92787665,5.86598727 9.07996068,5.86598727 L15.2770611,5.86598727 C16.0113134,5.86598727 16.6958211,5.91417744 17.321516,6.01496226 C17.5005451,6.04372091 17.6743925,6.07688403 17.8435762,6.11445164 C18.0125009,6.15176016 18.176762,6.19373224 18.3355823,6.24036789 C18.415122,6.26342663 18.4931072,6.2877808 18.570056,6.3134304 C18.8773331,6.41525157 19.1633651,6.53572699 19.4265974,6.67511576 C19.7369835,4.69646885 19.4245247,3.34999405 18.3542366,2.13047186 C17.1759092,0.787883366 15.0472509,0.212710373 12.3237291,0.212710373 L4.41769131,0.212710373 C3.86117257,0.212710373 3.38730257,0.61766325 3.30050845,1.16744572 L0.00854986882,22.0428572 C-0.0564809516,22.4548055 0.26193689,22.8271134 0.678807767,22.8271134 L5.55948743,22.8271134 L8.10242568,6.70154263"/>
    </g>
    <rect width="163.725" height="326.725" x="497.64" y="27.64" fill="#FFC036" stroke="#6C7378" stroke-width="1.275" rx="13.019"/>
    <rect width="139.15" height="256.15" x="511.43" y="57.42" fill="#FFF" stroke="#6C7378" stroke-width=".85" rx="2.893"/>
    <rect width="25.15" height="25.15" x="567.42" y="320.43" stroke="#6C7378" stroke-width=".85" rx="12.575"/>
    <rect width="6.15" height="6.15" x="549.42" y="41.42" stroke="#6C7378" stroke-width=".85" rx="3.075"/>
    <rect width="32.15" height="6.15" x="564.42" y="41.42" stroke="#6C7378" stroke-width=".85" rx="3.075"/>
    <rect width="50" height="7" x="69" y="100" fill="#CBD2D6"/>
    <rect width="127" height="7" x="151" y="42" fill="#CBD2D6"/>
    <rect width="89" height="7" x="538" y="84" fill="#CBD2D6"/>
    <rect width="33" height="3" x="165" y="55" fill="#CBD2D6"/>
    <rect width="24" height="6" x="470" y="52" fill="#6C7378"/>
    <rect width="33" height="3" x="538" y="96" fill="#CBD2D6"/>
    <rect width="50" height="11" x="69" y="80" fill="#F5F7FA"/>
    <rect width="64" height="11" x="69" y="198" fill="#F5F7FA"/>
    <rect width="33" height="5" x="69" y="65" fill="#F5F7FA"/>
    <rect width="35" height="7" x="69" y="112" fill="#CBD2D6"/>
    <rect width="43" height="7" x="69" y="125" fill="#CBD2D6"/>
    <rect width="26" height="3" x="85" y="220" fill="#CBD2D6"/>
    <rect width="26" height="3" x="85" y="232" fill="#CBD2D6"/>
    <rect width="34" height="3" x="123" y="233" fill="#6C7378" rx="1.5" transform="rotate(90 140 234.5)"/>
    <rect width="26" height="3" x="85" y="244" fill="#CBD2D6"/>
    <rect width="26" height="3" x="85" y="256" fill="#CBD2D6"/>
    <rect width="26" height="3" x="85" y="268" fill="#CBD2D6"/>
    <rect width="35" height="7" x="69" y="138" fill="#CBD2D6"/>
    <rect width="27" height="7" x="69" y="151" fill="#CBD2D6"/>
    <rect width="43" height="7" x="69" y="163" fill="#CBD2D6"/>
    <rect width="9" height="9" x="70" y="217" fill="#6C7378" rx="4.5"/>
    <rect width="9" height="9" x="151" y="51" fill="#6C7378" rx="4.5"/>
    <rect width="16" height="16" x="516" y="84" fill="#6C7378" rx="8"/>
    <rect width="9" height="9" x="70" y="229" fill="#6C7378" rx="4.5"/>
    <rect width="9" height="9" x="70" y="241" fill="#6C7378" rx="4.5"/>
    <rect width="9" height="9" x="70" y="253" fill="#6C7378" rx="4.5"/>
    <rect width="9" height="9" x="70" y="265" fill="#6C7378" rx="4.5"/>
    <path stroke="#6C7378" stroke-linecap="round" stroke-linejoin="round" stroke-width=".723" d="M74.308969,47 L87.2401851,47 C87.6344558,47 87.675391,47.1701333 87.3378551,47.3784 L78.9770188,52.5 L70.6169007,47.3784 C70.2764922,47.1694 70,47.3292667 70,47.7384667 L70,57.2615333 C70,57.6692667 70.3274816,58 70.7152889,58 L87.239467,58 C87.6344558,58 87.9561921,57.6766 87.9583466,57.2608 L88,49.9934667"/>
    <polygon fill="#6C7378" points="110.5 69 107 65 114 65"/>
    <g transform="translate(303 264)">
      <rect width="76.397" height="21.675" y=".99" fill="#0070BA" rx="10.838"/>
      <text fill="#FFF" font-family="PayPalSansBig-Medium, PayPal Sans Big, sans-serif" font-size="9.393" font-weight="400">
        <tspan x="13.88" y="13.34">Get Details</tspan>
      </text>
    </g>
    <g transform="translate(543 278)">
      <rect width="76.397" height="21.675" y=".99" fill="#0070BA" rx="10.838"/>
      <text fill="#FFF" font-family="PayPalSansBig-Medium, PayPal Sans Big, sans-serif" font-size="9.393" font-weight="400">
        <tspan x="13.88" y="13.34">Get Details</tspan>
      </text>
    </g>
    <rect width="83" height="4" x="520" y="231" fill="#D8D8D8" fill-rule="nonzero"/>
    <rect width="22" height="4" x="621" y="254" fill="#6C7378" fill-rule="nonzero"/>
    <rect width="22" height="4" x="621" y="231" fill="#D8D8D8" fill-rule="nonzero"/>
    <rect width="39" height="4" x="520" y="222" fill="#D8D8D8" fill-rule="nonzero"/>
    <rect width="64" height="4" x="520" y="254" fill="#6C7378" fill-rule="nonzero"/>
    <text fill="#0070BA" font-family="PayPalSansBig-Regular, PayPal Sans Big, sans-serif" font-size="11.05">
      <tspan x="520" y="208">Transaction details</tspan>
    </text>
    <text fill="#6C7378" font-family="PayPalSansBig-Light, PayPal Sans Big, sans-serif" font-size="11.05" font-weight="300">
      <tspan x="517.23" y="153">Dollar Payout has sent you</tspan> <tspan x="541.55" y="172.58" font-size="15.3">$20.00 EURO</tspan>
    </text>
    <path stroke="#6C7378" stroke-linecap="square" stroke-width=".606" d="M520.223053 187.452083L642.727876 187.452083M520.220955 243.452083L643.730435 243.452083M520.222894 266.452083L643.72807 266.452083"/>
    <g transform="translate(570.773 115.156)">
      <path fill="#009CDE" d="M16.2932752,5.59848419 C16.5535991,3.93897387 16.2915368,2.80967243 15.3938758,1.78684736 C14.4056013,0.660805404 12.620275,0.178402248 10.3360309,0.178402248 L3.70516045,0.178402248 C3.2384028,0.178402248 2.84096345,0.518040145 2.76816838,0.979148026 L0.00717085772,18.4875577 C-0.0473711207,18.8330627 0.219689005,19.1453209 0.569322643,19.1453209 L4.66279591,19.1453209 L4.38030757,20.9369488 C4.33271915,21.2392114 4.56609798,21.5125732 4.87205457,21.5125732 L8.32232363,21.5125732 C8.73084522,21.5125732 9.07852317,21.2153085 9.14219169,20.8120021 L9.17609029,20.636642 L9.82603076,16.5149199 L9.86796941,16.2871909 C9.93163794,15.8836671 10.2793159,15.5866198 10.6876202,15.5866198 L11.2037046,15.5866198 C14.5464108,15.5866198 17.1637739,14.2285028 17.9284481,10.3010458 C18.2480945,8.66000584 18.0829475,7.29015471 17.2378728,6.32708679 C16.9821122,6.03590651 16.6642041,5.79492223 16.2932752,5.59848419"/>
      <path fill="#012169" d="M16.2932752,5.59848419 C16.5535991,3.93897387 16.2915368,2.80967243 15.3938758,1.78684736 C14.4056013,0.660805404 12.620275,0.178402248 10.3360309,0.178402248 L3.70516045,0.178402248 C3.2384028,0.178402248 2.84096345,0.518040145 2.76816838,0.979148026 L0.00717085772,18.4875577 C-0.0473711207,18.8330627 0.219689005,19.1453209 0.569322643,19.1453209 L4.66279591,19.1453209 L5.69105344,12.6250556 L5.65911053,12.8295337 C5.7319056,12.3684258 6.12608548,12.0285706 6.59284313,12.0285706 L8.53853585,12.0285706 C12.3595165,12.0285706 15.3512853,10.4761885 16.225478,5.986797 C16.2513366,5.85402748 16.273501,5.72516934 16.2932752,5.59848419"/>
      <path fill="#003087" d="M6.79558283,5.62064866 C6.83947717,5.34315819 7.01744482,5.11608103 7.25712531,5.00113001 C7.36620927,4.94897832 7.48789655,4.91986029 7.6154509,4.91986029 L12.8130189,4.91986029 C13.4288435,4.91986029 14.0029467,4.96027785 14.5277231,5.04480705 C14.6778766,5.06892721 14.823684,5.09674145 14.9655801,5.12824976 C15.1072588,5.15954078 15.2450262,5.19474317 15.3782303,5.23385694 C15.444941,5.25319652 15.5103479,5.2736226 15.5748857,5.29513518 C15.8326019,5.38053357 16.0724997,5.48157748 16.2932752,5.59848419 C16.5535991,3.93897387 16.2915368,2.80967243 15.3938758,1.78684736 C14.4056013,0.660805404 12.620275,0.178402248 10.3360309,0.178402248 L3.70516045,0.178402248 C3.2384028,0.178402248 2.84096345,0.518040145 2.76816838,0.979148026 L0.00717085772,18.4875577 C-0.0473711207,18.8330627 0.219689005,19.1453209 0.569322643,19.1453209 L4.66279591,19.1453209 L6.79558283,5.62064866"/>
    </g>
    <path stroke="#CBD2D6" stroke-linecap="square" stroke-width=".85" d="M511.418675,107.5 L649.581325,107.5"/>
    <rect width="139" height="16" x="511" y="58" fill="#6C7378"/>
    <path stroke="#FFF" stroke-linecap="round" stroke-linejoin="round" stroke-width=".723" d="M620.872646,62 L629.493457,62 C629.756304,62 629.783594,62.1237333 629.55857,62.2752 L623.984679,66 L618.411267,62.2752 C618.184328,62.1232 618,62.2394667 618,62.5370667 L618,69.4629333 C618,69.7594667 618.218321,70 618.476859,70 L629.492978,70 C629.756304,70 629.970795,69.7648 629.972231,69.4624 L630,64.1770667"/>
    <rect width="3" height="3" x="636" y="65" fill="#FFF" rx="1.5"/>
    <rect width="3" height="3" x="640" y="65" fill="#FFF" rx="1.5"/>
    <rect width="3" height="3" x="643" y="65" fill="#FFF" rx="1.5"/>
    <polyline stroke="#FFF" stroke-linecap="round" stroke-linejoin="round" stroke-width=".85" points="513 67 517.39 64 522 67" transform="rotate(-90 517.5 65.5)"/>
  </g>
</svg>
